<?xml version="1.0"?>
<svg xmlns="http://www.w3.org/2000/svg" viewBox="0 0 64 64" width="512" height="512"><g id="Book-Information-Smart_phone-Telephone-Online-Education" data-name="Book-Information-Smart phone-Telephone-Online-Education"><path d="M26,52a3,3,0,1,0,3,3A3,3,0,0,0,26,52Zm0,4a1,1,0,1,1,1-1A1,1,0,0,1,26,56Z"/><path d="M60,21H58V20a1,1,0,0,0-1-1H45.56a1.016,1.016,0,0,0-.77.35l-.79.93V8a6,6,0,0,0-6-6H14A6,6,0,0,0,8,8V19H6a1,1,0,0,0-1,1V35H3a.977.977,0,0,0-.89.55A1,1,0,0,0,2.2,36.6L8,44.33V56a6,6,0,0,0,6,6H38a6,6,0,0,0,6-6V45H60a2.006,2.006,0,0,0,2-2V23A2.006,2.006,0,0,0,60,21ZM9,42.33,5,37H6a1,1,0,0,0,1-1V21h4V36a1,1,0,0,0,1,1h1Zm33-1.75-.71-1.12a1,1,0,0,0-.85-.46H30V21h9.98L42,23.37ZM30,41h9.9l1.27,2H26V23h2V39A2.006,2.006,0,0,0,30,41ZM42,20.28l-.79-.93a1.016,1.016,0,0,0-.77-.35H29a1,1,0,0,0-1,1v1H26a2.006,2.006,0,0,0-2,2V43a2.006,2.006,0,0,0,2,2H42V56a4,4,0,0,1-4,4H14a4,4,0,0,1-4-4V44.33l5.8-7.73a1,1,0,0,0,.09-1.05A.977.977,0,0,0,15,35H13V20a1,1,0,0,0-1-1H10V8a4,4,0,0,1,4-4H38a4,4,0,0,1,4,4Zm2,20.3V23.37L46.02,21H56V39H45.56a1,1,0,0,0-.85.46ZM60,43H44.83l1.27-2H57a1,1,0,0,0,1-1V23h2Z"/><path d="M34,25h4a1,1,0,0,0,0-2H34a1,1,0,0,0,0,2Z"/><path d="M39,27H34a1,1,0,0,0,0,2h5a1,1,0,0,0,0-2Z"/><path d="M39,31H34a1,1,0,0,0,0,2h5a1,1,0,0,0,0-2Z"/><path d="M39,35H34a1,1,0,0,0,0,2h5a1,1,0,0,0,0-2Z"/><path d="M50,29a1,1,0,0,0-1,1v6a1,1,0,0,0,2,0V30A1,1,0,0,0,50,29Z"/><circle cx="50" cy="25" r="2"/></g></svg>
